<?xml version="1.0" encoding="UTF-8"?>
<svg width="52px" height="52px" version="1.1" xmlns="http://www.w3.org/2000/svg">
<path transform="scale(.26458)" d="m0 0v155a40 40 0 0 0 40 40h155v-155a40 40 0 0 0-40-40h-155z" fill="#006e82"/>
<g>
<path transform="scale(.26458)" d="m97.5 25-4.8184 0.16211-4.7969 0.48242-4.7539 0.79883-4.6914 1.1152-4.6055 1.4238-4.5 1.7305-4.377 2.0254-4.2305 2.3125-4.0664 2.5879-3.8887 2.8516-3.6895 3.1035-3.4766 3.3398-3.248 3.5645-3.002 3.7695-2.7461 3.9629-2.4766 4.1387-2.1953 4.291-1.9023 4.4316-1.6035 4.5449-1.2969 4.6445-0.98633 4.7188 23.902 25h-23.902l0.98633 4.7188 1.2969 4.6445 1.6035 4.5449 1.9023 4.4316 2.1953 4.293 2.4766 4.1367 2.7461 3.9629 3.0039 3.7715 3.2461 3.5625 44.873 46.934h104.52v-100.41l-46.234-48.357-3.4629-3.2422-3.666-3.0098-3.8574-2.7637-4.0274-2.5059-4.1855-2.2363-4.3223-1.957-4.4394-1.6719-4.541-1.377-4.6191-1.0781-4.6797-0.77344-4.7246-0.46484z" fill="#00546d"/>
</g>
<g>
<path d="m25.797 6.6146c-0.428 3.7e-4 -0.8531 0.01487-1.2749 0.04308-0.4267 0.02855-0.85 0.07112-1.2693 0.12731-0.4234 0.05673-0.8429 0.12732-1.2578 0.21138-0.4185 0.0848-0.8324 0.18325-1.2412 0.29496-0.4116 0.11245-0.8179 0.23831-1.2186 0.37714-0.4028 0.13959-0.7999 0.29228-1.1906 0.45762-0.3925 0.16608-0.7786 0.34491-1.1577 0.53602-0.3804 0.19174-0.7537 0.39587-1.1195 0.61187-0.3665 0.21641-0.7254 0.44477-1.0761 0.68459-0.3512 0.24015-0.6943 0.49185-1.0285 0.75455-0.3344 0.2628-0.6601 0.5366-0.9763 0.821-0.3162 0.2842-0.623 0.5791-0.9199 0.8839-0.2965 0.3044-0.5831 0.6189-0.8593 0.9429-0.2754 0.3232-0.5405 0.6559-0.7945 0.9976-0.2533 0.3407-0.49572 0.6903-0.72665 1.0485-0.22995 0.3566-0.44852 0.7216-0.65519 1.0946-0.20547 0.3709-0.3992 0.7497-0.58057 1.1358-0.18016 0.3836-0.34817 0.7744-0.50348 1.1721-0.15398 0.3944-0.29551 0.7955-0.42407 1.2029-0.12729 0.4035-0.24186 0.8132-0.34317 1.2287-0.10014 0.4107-0.18735 0.827-0.26114 1.2485h1.2588 1.2585 1.2586 1.2587 1.2586 1.2585 1.2587 1.2583 1.2586 1.2584 1.2583 1.2587 1.2586 1.2587 1.2584 0.0031c0.4481 4e-4 0.8753 0.0899 1.2648 0.2518 0.404 0.1678 0.7672 0.4133 1.0718 0.7179 0.3043 0.3046 0.5495 0.6683 0.717 1.0724 0.1614 0.3897 0.2506 0.817 0.2506 1.2652 0 0.4481-0.0892 0.8755-0.2506 1.2652-0.1675 0.404-0.4127 0.7676-0.717 1.0721-0.3043 0.3048-0.6678 0.5503-1.0716 0.7181-0.3897 0.1619-0.8169 0.2513-1.265 0.2519h-0.0031-1.2588-1.2585-1.2586-1.2588-1.2586-1.2585-1.2587-1.2583-1.2586-1.2584-1.2583-1.2586-1.2586-1.2587-1.2584c0.07379 0.4214 0.161 0.8379 0.26117 1.2485 0.10131 0.4154 0.21587 0.8253 0.34319 1.2288 0.12854 0.4074 0.27004 0.8085 0.42402 1.2028 0.15534 0.3976 0.32335 0.7887 0.50353 1.1721 0.18137 0.3863 0.3751 0.7649 0.5806 1.1358 0.20664 0.3731 0.42522 0.7379 0.65511 1.0946 0.23096 0.3582 0.47335 0.7078 0.72675 1.0485 0.2541 0.3419 0.5193 0.6747 0.7948 0.998 0.2761 0.3239 0.5626 0.6382 0.8591 0.9428 0.2968 0.3048 0.6036 0.5995 0.9198 0.8837 0.3162 0.2844 0.6419 0.5582 0.9763 0.821 0.3343 0.2627 0.6773 0.5143 1.0286 0.7546 0.3508 0.2399 0.7098 0.4683 1.0764 0.6847 0.3656 0.2159 0.7389 0.4199 1.1191 0.6117 0.3791 0.191 0.7651 0.3699 1.1576 0.5358 0.3908 0.1654 0.7879 0.318 1.1908 0.4577 0.4006 0.1389 0.807 0.2646 1.2185 0.3771 0.4088 0.1119 0.8227 0.2103 1.2411 0.295 0.415 0.0841 0.8344 0.1548 1.2579 0.2114 0.4193 0.0561 0.8426 0.0987 1.2693 0.1272 0.4218 0.0283 0.8468 0.0429 1.2748 0.0432 0.4198 0 0.8382-0.0138 1.2546-0.041 0.4186-0.0276 0.8351-0.0686 1.2491-0.1231 0.4157-0.0547 0.8287-0.123 1.2385-0.2045 0.4109-0.0818 0.8187-0.1767 1.2224-0.285 0.4046-0.1084 0.8051-0.2299 1.2012-0.3643 0.3964-0.1347 0.7882-0.282 1.175-0.4424 0.3863-0.16 0.7679-0.3328 1.143-0.5178 0.3752-0.1852 0.7446-0.3825 1.1073-0.5918 0.3622-0.2091 0.7176-0.43 1.066-0.6628 0.3474-0.2321 0.6877-0.476 1.0203-0.7311 0.3312-0.2542 0.6551-0.5199 0.9705-0.7966 0.3137-0.2752 0.6191-0.5612 0.9159-0.8581 0.2969-0.2968 0.5832-0.6024 0.8581-0.9159 0.2767-0.3154 0.5421-0.639 0.7964-0.9703 0.2553-0.3328 0.499-0.6731 0.7313-1.0205 0.2328-0.3484 0.4537-0.7038 0.6628-1.0657 0.2093-0.3628 0.4066-0.7321 0.5916-1.1073 0.1852-0.3754 0.358-0.7567 0.518-1.1433 0.1601-0.3865 0.3077-0.7784 0.4421-1.1747 0.1347-0.3961 0.2562-0.7969 0.3646-1.2015 0.1083-0.4037 0.2032-0.8115 0.285-1.2224 0.0815-0.4098 0.1498-0.8225 0.2045-1.2382 0.0545-0.4141 0.0955-0.8308 0.1231-1.2496 0.0272-0.4162 0.041-0.8347 0.041-1.2544 0-0.4198-0.0138-0.8382-0.041-1.2546-0.0276-0.4186-0.0686-0.8352-0.1231-1.2491-0.0547-0.4157-0.123-0.8288-0.2045-1.2385-0.0818-0.411-0.1767-0.8187-0.285-1.2225-0.1084-0.4045-0.2299-0.8051-0.3643-1.2011-0.1347-0.3965-0.282-0.7883-0.4424-1.175-0.16-0.3865-0.3328-0.7678-0.5178-1.1432-0.1852-0.3752-0.3825-0.7445-0.5918-1.1073-0.2091-0.362-0.43-0.7175-0.6628-1.066-0.2321-0.3472-0.476-0.6875-0.7311-1.0201-0.2542-0.3313-0.5199-0.6551-0.7966-0.9706-0.2752-0.3136-0.5612-0.6191-0.8581-0.9159-0.2968-0.2969-0.6024-0.583-0.9159-0.8582-0.3154-0.2766-0.639-0.5421-0.9703-0.7962-0.3328-0.2553-0.6731-0.4991-1.0205-0.73123-0.3484-0.23281-0.7038-0.45384-1.0657-0.66284-0.3628-0.20941-0.7321-0.40671-1.1073-0.59168-0.3754-0.18519-0.7567-0.35796-1.1433-0.51811-0.3865-0.1601-0.7784-0.30755-1.1747-0.44212-0.3961-0.13446-0.7969-0.25606-1.2015-0.36449-0.4037-0.10819-0.8115-0.20331-1.2224-0.28506-0.4098-0.08149-0.8225-0.14973-1.2382-0.20445-0.4141-0.0545-0.8308-0.09559-1.2496-0.12303-0.4162-0.02725-0.8347-0.04101-1.2544-0.04101" fill="#0ff"/>
</g>
<g>
<path d="m25.189 7.6836c-5.6161 0.15939-11.058 3.1103-14.235 7.7476-1.2732 1.7996-2.2327 3.9093-2.734 6.0005 6.0546 0.0169 12.113-0.04505 18.165 0.04155 2.6596 0.26237 4.5287 3.3552 3.5098 5.8331-0.68718 1.9727-2.8777 3.1268-4.9049 2.8558h-16.77c1.4611 6.1479 6.489 11.403 12.648 13.069 3.9098 1.1009 8.0764 0.8899 11.822-0.68112 5.1187-2.0715 9.1614-6.6042 10.583-11.946 0.70549-2.5915 0.83549-5.5204 0.33203-8.1699-0.63855-3.4356-2.2749-6.6039-4.64-9.0888-3.522-3.7312-8.6879-5.8812-13.776-5.6612z" fill="#fff"/>
</g>
<g display="none">
<path d="m-6.6146-27.781a19.182 19.182 0 0 0-18.878 15.875h18.882a3.3073 3.3073 0 0 1 3.3042 3.3073 3.3073 3.3073 0 0 1-3.3042 3.3073 3.3073 3.3073 0 0 1-0.0031 0h-18.878a19.182 19.182 0 0 0 18.878 15.875 19.182 19.182 0 0 0 19.182-19.182 19.182 19.182 0 0 0-19.182-19.182z" fill="#fff" stroke-width=".26458"/>
</g>
</svg>
